<svg width="16" height="16" viewBox="0 0 16 16" fill="none" xmlns="http://www.w3.org/2000/svg">
<path d="M13.8333 0.5C14.2754 0.5 14.6993 0.675595 15.0118 0.988155C15.3244 1.30072 15.5 1.72464 15.5 2.16667V13.8333C15.5 14.2754 15.3244 14.6993 15.0118 15.0118C14.6993 15.3244 14.2754 15.5 13.8333 15.5H2.16667C1.72464 15.5 1.30072 15.3244 0.988155 15.0118C0.675595 14.6993 0.5 14.2754 0.5 13.8333V2.16667C0.5 1.72464 0.675595 1.30072 0.988155 0.988155C1.30072 0.675595 1.72464 0.5 2.16667 0.5H13.8333ZM13.4167 13.4167V9C13.4167 8.27949 13.1304 7.5885 12.621 7.07903C12.1115 6.56955 11.4205 6.28333 10.7 6.28333C9.99167 6.28333 9.16667 6.71667 8.76667 7.36667V6.44167H6.44167V13.4167H8.76667V9.30833C8.76667 8.66667 9.28333 8.14167 9.925 8.14167C10.2344 8.14167 10.5312 8.26458 10.75 8.48338C10.9688 8.70217 11.0917 8.99891 11.0917 9.30833V13.4167H13.4167ZM3.73333 5.13333C4.10464 5.13333 4.46073 4.98583 4.72328 4.72328C4.98583 4.46073 5.13333 4.10464 5.13333 3.73333C5.13333 2.95833 4.50833 2.325 3.73333 2.325C3.35982 2.325 3.0016 2.47338 2.73749 2.73749C2.47338 3.0016 2.325 3.35982 2.325 3.73333C2.325 4.50833 2.95833 5.13333 3.73333 5.13333ZM4.89167 13.4167V6.44167H2.58333V13.4167H4.89167Z" fill="white"/>
</svg>
